<svg width="129" height="129" viewBox="0 0 129 129" fill="none" xmlns="http://www.w3.org/2000/svg">
<path d="M4.7085 17.9229C5.29985 17.0325 6.22066 16.4133 7.26843 16.2016C8.31621 15.99 9.40516 16.2031 10.2958 16.7942L22.3896 24.8647C23.245 25.4713 23.8304 26.3874 24.0216 27.4185C24.2127 28.4496 23.9945 29.5146 23.4133 30.3875C22.8321 31.2604 21.9336 31.8724 20.9085 32.0937C19.8834 32.315 18.8125 32.1281 17.9229 31.5727L5.82919 23.5102C4.94002 22.9176 4.32252 21.9962 4.11238 20.9486C3.90224 19.9009 4.11665 18.8126 4.7085 17.9229ZM64.5 16.125C54.8776 16.125 45.6493 19.9475 38.8453 26.7515C32.0412 33.5556 28.2188 42.7839 28.2188 52.4062V71.7643L20.4465 91.2191C20.2014 91.8308 20.1099 92.4932 20.1801 93.1483C20.2504 93.8035 20.4801 94.4315 20.8493 94.9773C21.2185 95.5231 21.7158 95.9701 22.2978 96.2791C22.8797 96.5882 23.5286 96.7498 24.1875 96.75H48.375C48.375 105.683 55.5667 112.875 64.5 112.875C73.4333 112.875 80.625 105.683 80.625 96.75H104.812C105.47 96.7493 106.118 96.5876 106.699 96.279C107.28 95.9704 107.777 95.5243 108.146 94.9796C108.515 94.4348 108.745 93.8081 108.816 93.154C108.887 92.4999 108.797 91.8384 108.553 91.2272L100.781 71.7562V52.4062C100.781 42.7839 96.9588 33.5556 90.1547 26.7515C83.3507 19.9475 74.1224 16.125 64.5 16.125ZM72.5625 96.75C72.5625 101.233 68.9827 104.812 64.5 104.812C60.0173 104.812 56.4375 101.233 56.4375 96.75H72.5625ZM36.2812 52.4062C36.2812 44.9222 39.2543 37.7446 44.5463 32.4526C49.8384 27.1605 57.0159 24.1875 64.5 24.1875C71.9841 24.1875 79.1616 27.1605 84.4537 32.4526C89.7457 37.7446 92.7188 44.9222 92.7188 52.4062V72.5464C92.7201 73.0575 92.8186 73.5636 93.009 74.0379L98.8624 88.6875H30.1376L35.991 74.0379C36.1814 73.5636 36.2799 73.0575 36.2812 72.5464V52.4062ZM118.704 16.8022C119.594 16.2469 120.665 16.06 121.69 16.2813C122.715 16.5026 123.613 17.1146 124.195 17.9875C124.776 18.8604 124.994 19.9254 124.803 20.9565C124.612 21.9876 124.026 22.9037 123.171 23.5102L111.077 31.5727C110.188 32.1281 109.117 32.315 108.091 32.0937C107.066 31.8724 106.168 31.2604 105.587 30.3875C105.005 29.5146 104.787 28.4496 104.978 27.4185C105.17 26.3874 105.755 25.4713 106.61 24.8647L118.704 16.8022ZM0 52.4062C0 51.3371 0.42472 50.3117 1.18073 49.5557C1.93673 48.7997 2.9621 48.375 4.03125 48.375H16.125C17.1942 48.375 18.2195 48.7997 18.9755 49.5557C19.7315 50.3117 20.1562 51.3371 20.1562 52.4062C20.1562 53.4754 19.7315 54.5008 18.9755 55.2568C18.2195 56.0128 17.1942 56.4375 16.125 56.4375H4.03125C2.9621 56.4375 1.93673 56.0128 1.18073 55.2568C0.42472 54.5008 0 53.4754 0 52.4062ZM124.969 48.375C126.038 48.375 127.063 48.7997 127.819 49.5557C128.575 50.3117 129 51.3371 129 52.4062C129 53.4754 128.575 54.5008 127.819 55.2568C127.063 56.0128 126.038 56.4375 124.969 56.4375H112.875C111.806 56.4375 110.78 56.0128 110.024 55.2568C109.268 54.5008 108.844 53.4754 108.844 52.4062C108.844 51.3371 109.268 50.3117 110.024 49.5557C110.78 48.7997 111.806 48.375 112.875 48.375H124.969Z" fill="#F24E1E"/>
</svg>
